# xmcd
# 
# Track frame offsets:
#     150
#     17677
#     33122
#     47555
#     62200
#     77610
#     95062
#     113890
#     131950
#     148555
# 
# Disc length: 2187
# 
# Revision: 2
# Processed by: cddbd v1.5.2PL0 Copyright (c) Steve Scherf et al.
# Submitted via: fre:ac v1.0.27
# 
DISCID=8408890a
DTITLE=Exile - Shelter From The Night
DYEAR=0
DGENRE=Country
TTITLE0=Just One Kiss
TTITLE1=Shelter From The Night
TTITLE2=My Heart's In Good Hands
TTITLE3=Showdown
TTITLE4=Fly On The Wall
TTITLE5=Feel Like Foolin' Around
TTITLE6=I Can't Get Close Enough
TTITLE7=She's Already Gone
TTITLE8=It's You Again
TTITLE9=As Long As I Have Your Memory
EXTD=
EXTT0=
EXTT1=
EXTT2=
EXTT3=
EXTT4=
EXTT5=
EXTT6=
EXTT7=
EXTT8=
EXTT9=
PLAYORDER=
